REM DIRINDEX 1\2,1\3
REM DIRNAME folder01,folder02,folder03
TITLE ""
FILE "Disk2Track22.mp3" MP3
  TRACK 01 AUDIO
    TITLE "2:cjc052_0681"
    INDEX 01 00:00:00
  TRACK 02 AUDIO
    TITLE "2:cjc052_0682"
    INDEX 01 00:04:01
  TRACK 03 AUDIO
    TITLE "2:cjc052_0683"
    INDEX 01 00:10:63
  TRACK 04 AUDIO
    TITLE "2:cjc052_0684"
    INDEX 01 00:23:34
  TRACK 05 AUDIO
    TITLE "0:"
    INDEX 01 00:33:15
